<mxfile host="app.diagrams.net" modified="2020-10-06T19:57:20.573Z" agent="5.0 (Windows NT 6.1; Win64; x64) AppleWebKit/537.36 (KHTML, like Gecko) Chrome/85.0.4183.121 Safari/537.36" etag="HBz7fL6mx1wnB45foAxh" version="13.7.7" type="github">
  <diagram id="C5RBs43oDa-KdzZeNtuy" name="Page-1">
    <mxGraphModel dx="868" dy="450" grid="1" gridSize="10" guides="1" tooltips="1" connect="1" arrows="1" fold="1" page="1" pageScale="1" pageWidth="827" pageHeight="1169" background="none" math="0" shadow="1">
      <root>
        <mxCell id="WIyWlLk6GJQsqaUBKTNV-0" />
        <mxCell id="WIyWlLk6GJQsqaUBKTNV-1" parent="WIyWlLk6GJQsqaUBKTNV-0" />
        <mxCell id="WIyWlLk6GJQsqaUBKTNV-4" value="Yes" style="rounded=0;html=1;jettySize=auto;orthogonalLoop=1;fontSize=11;endArrow=block;endFill=0;endSize=8;strokeWidth=1;shadow=0;labelBackgroundColor=none;edgeStyle=orthogonalEdgeStyle;" parent="WIyWlLk6GJQsqaUBKTNV-1" edge="1">
          <mxGeometry y="20" relative="1" as="geometry">
            <mxPoint as="offset" />
            <mxPoint x="770" y="240" as="sourcePoint" />
            <mxPoint x="770" y="280" as="targetPoint" />
          </mxGeometry>
        </mxCell>
        <mxCell id="WIyWlLk6GJQsqaUBKTNV-5" value="No" style="edgeStyle=orthogonalEdgeStyle;rounded=0;html=1;jettySize=auto;orthogonalLoop=1;fontSize=11;endArrow=block;endFill=0;endSize=8;strokeWidth=1;shadow=0;labelBackgroundColor=none;" parent="WIyWlLk6GJQsqaUBKTNV-1" edge="1">
          <mxGeometry y="10" relative="1" as="geometry">
            <mxPoint as="offset" />
            <mxPoint x="720" y="60" as="sourcePoint" />
            <mxPoint x="770" y="60" as="targetPoint" />
          </mxGeometry>
        </mxCell>
        <mxCell id="WIyWlLk6GJQsqaUBKTNV-8" value="No" style="rounded=0;html=1;jettySize=auto;orthogonalLoop=1;fontSize=11;endArrow=block;endFill=0;endSize=8;strokeWidth=1;shadow=0;labelBackgroundColor=none;edgeStyle=orthogonalEdgeStyle;" parent="WIyWlLk6GJQsqaUBKTNV-1" edge="1">
          <mxGeometry x="0.3333" y="20" relative="1" as="geometry">
            <mxPoint as="offset" />
            <mxPoint x="780" y="320" as="sourcePoint" />
            <mxPoint x="780" y="380" as="targetPoint" />
          </mxGeometry>
        </mxCell>
        <mxCell id="WIyWlLk6GJQsqaUBKTNV-9" value="Yes" style="edgeStyle=orthogonalEdgeStyle;rounded=0;html=1;jettySize=auto;orthogonalLoop=1;fontSize=11;endArrow=block;endFill=0;endSize=8;strokeWidth=1;shadow=0;labelBackgroundColor=none;" parent="WIyWlLk6GJQsqaUBKTNV-1" edge="1">
          <mxGeometry x="-0.2" y="10" relative="1" as="geometry">
            <mxPoint as="offset" />
            <mxPoint x="730" y="170" as="sourcePoint" />
            <mxPoint x="780" y="170" as="targetPoint" />
          </mxGeometry>
        </mxCell>
        <mxCell id="Ec5q4af4AY61JB5OQxS7-27" style="edgeStyle=orthogonalEdgeStyle;rounded=0;orthogonalLoop=1;jettySize=auto;html=1;exitX=0.5;exitY=1;exitDx=0;exitDy=0;fontFamily=Helvetica;" edge="1" parent="WIyWlLk6GJQsqaUBKTNV-1" source="Ec5q4af4AY61JB5OQxS7-1">
          <mxGeometry relative="1" as="geometry">
            <mxPoint x="414" y="170" as="targetPoint" />
          </mxGeometry>
        </mxCell>
        <mxCell id="Ec5q4af4AY61JB5OQxS7-1" value="" style="rounded=1;whiteSpace=wrap;html=1;fillColor=#dae8fc;strokeColor=#6c8ebf;fontFamily=Comic Sans MS;" vertex="1" parent="WIyWlLk6GJQsqaUBKTNV-1">
          <mxGeometry x="354" y="70" width="120" height="60" as="geometry" />
        </mxCell>
        <mxCell id="Ec5q4af4AY61JB5OQxS7-3" value="&lt;h1&gt;Start&lt;/h1&gt;" style="text;html=1;strokeColor=none;fillColor=none;align=center;verticalAlign=middle;whiteSpace=wrap;rounded=0;fontFamily=Helvetica;" vertex="1" parent="WIyWlLk6GJQsqaUBKTNV-1">
          <mxGeometry x="394" y="90" width="40" height="20" as="geometry" />
        </mxCell>
        <mxCell id="Ec5q4af4AY61JB5OQxS7-24" style="edgeStyle=orthogonalEdgeStyle;rounded=0;orthogonalLoop=1;jettySize=auto;html=1;exitX=0.5;exitY=1;exitDx=0;exitDy=0;entryX=0.5;entryY=0;entryDx=0;entryDy=0;fontFamily=Helvetica;" edge="1" parent="WIyWlLk6GJQsqaUBKTNV-1" source="Ec5q4af4AY61JB5OQxS7-7" target="Ec5q4af4AY61JB5OQxS7-19">
          <mxGeometry relative="1" as="geometry" />
        </mxCell>
        <mxCell id="Ec5q4af4AY61JB5OQxS7-7" value="" style="shape=hexagon;perimeter=hexagonPerimeter2;whiteSpace=wrap;html=1;fixedSize=1;fontFamily=Comic Sans MS;labelBackgroundColor=#FFCCFF;" vertex="1" parent="WIyWlLk6GJQsqaUBKTNV-1">
          <mxGeometry x="346" y="170" width="135" height="100" as="geometry" />
        </mxCell>
        <mxCell id="Ec5q4af4AY61JB5OQxS7-14" style="edgeStyle=orthogonalEdgeStyle;rounded=0;orthogonalLoop=1;jettySize=auto;html=1;exitX=0.5;exitY=1;exitDx=0;exitDy=0;fontFamily=Comic Sans MS;" edge="1" parent="WIyWlLk6GJQsqaUBKTNV-1" source="Ec5q4af4AY61JB5OQxS7-3" target="Ec5q4af4AY61JB5OQxS7-3">
          <mxGeometry relative="1" as="geometry" />
        </mxCell>
        <mxCell id="Ec5q4af4AY61JB5OQxS7-15" value="&lt;font face=&quot;Courier New&quot;&gt;Объявление массива, его параметры (размер, значения)&lt;/font&gt;" style="text;html=1;strokeColor=none;fillColor=none;align=center;verticalAlign=middle;whiteSpace=wrap;rounded=0;fontFamily=Comic Sans MS;" vertex="1" parent="WIyWlLk6GJQsqaUBKTNV-1">
          <mxGeometry x="394" y="210" width="40" height="20" as="geometry" />
        </mxCell>
        <mxCell id="Ec5q4af4AY61JB5OQxS7-32" style="edgeStyle=orthogonalEdgeStyle;rounded=0;orthogonalLoop=1;jettySize=auto;html=1;exitX=0.5;exitY=1;exitDx=0;exitDy=0;entryX=0.5;entryY=0;entryDx=0;entryDy=0;fontFamily=Helvetica;" edge="1" parent="WIyWlLk6GJQsqaUBKTNV-1" source="Ec5q4af4AY61JB5OQxS7-19" target="Ec5q4af4AY61JB5OQxS7-31">
          <mxGeometry relative="1" as="geometry" />
        </mxCell>
        <mxCell id="Ec5q4af4AY61JB5OQxS7-19" value="" style="rounded=0;whiteSpace=wrap;html=1;labelBackgroundColor=#FF66FF;fontFamily=Helvetica;" vertex="1" parent="WIyWlLk6GJQsqaUBKTNV-1">
          <mxGeometry x="354" y="310" width="120" height="60" as="geometry" />
        </mxCell>
        <mxCell id="Ec5q4af4AY61JB5OQxS7-30" value="Переход к нулевому(первому) элементу массива (array[0])" style="text;html=1;strokeColor=none;fillColor=none;align=center;verticalAlign=middle;whiteSpace=wrap;rounded=0;labelBackgroundColor=#FF66FF;fontFamily=Helvetica;" vertex="1" parent="WIyWlLk6GJQsqaUBKTNV-1">
          <mxGeometry x="394" y="330" width="40" height="20" as="geometry" />
        </mxCell>
        <mxCell id="Ec5q4af4AY61JB5OQxS7-36" style="edgeStyle=orthogonalEdgeStyle;rounded=0;orthogonalLoop=1;jettySize=auto;html=1;exitX=1;exitY=0.5;exitDx=0;exitDy=0;fontFamily=Helvetica;" edge="1" parent="WIyWlLk6GJQsqaUBKTNV-1" source="Ec5q4af4AY61JB5OQxS7-31">
          <mxGeometry relative="1" as="geometry">
            <mxPoint x="540" y="520" as="targetPoint" />
          </mxGeometry>
        </mxCell>
        <mxCell id="Ec5q4af4AY61JB5OQxS7-39" style="edgeStyle=orthogonalEdgeStyle;rounded=0;orthogonalLoop=1;jettySize=auto;html=1;exitX=0;exitY=0.5;exitDx=0;exitDy=0;fontFamily=Helvetica;" edge="1" parent="WIyWlLk6GJQsqaUBKTNV-1" source="Ec5q4af4AY61JB5OQxS7-31">
          <mxGeometry relative="1" as="geometry">
            <mxPoint x="290" y="520" as="targetPoint" />
          </mxGeometry>
        </mxCell>
        <mxCell id="Ec5q4af4AY61JB5OQxS7-31" value="" style="rhombus;whiteSpace=wrap;html=1;labelBackgroundColor=#FF66FF;fontFamily=Helvetica;" vertex="1" parent="WIyWlLk6GJQsqaUBKTNV-1">
          <mxGeometry x="352" y="390" width="124" height="124" as="geometry" />
        </mxCell>
        <mxCell id="Ec5q4af4AY61JB5OQxS7-33" value="&amp;nbsp;Элемент больше следующего?" style="text;html=1;strokeColor=none;fillColor=none;align=center;verticalAlign=middle;whiteSpace=wrap;rounded=0;labelBackgroundColor=#FF66FF;fontFamily=Helvetica;" vertex="1" parent="WIyWlLk6GJQsqaUBKTNV-1">
          <mxGeometry x="394" y="440" width="40" height="20" as="geometry" />
        </mxCell>
        <mxCell id="Ec5q4af4AY61JB5OQxS7-38" value="да&amp;nbsp;" style="text;html=1;strokeColor=none;fillColor=none;align=center;verticalAlign=middle;whiteSpace=wrap;rounded=0;labelBackgroundColor=#FF66FF;fontFamily=Helvetica;" vertex="1" parent="WIyWlLk6GJQsqaUBKTNV-1">
          <mxGeometry x="510" y="430" width="40" height="20" as="geometry" />
        </mxCell>
        <mxCell id="Ec5q4af4AY61JB5OQxS7-42" value="нет" style="text;html=1;strokeColor=none;fillColor=none;align=center;verticalAlign=middle;whiteSpace=wrap;rounded=0;labelBackgroundColor=#FF66FF;fontFamily=Helvetica;" vertex="1" parent="WIyWlLk6GJQsqaUBKTNV-1">
          <mxGeometry x="280" y="430" width="40" height="20" as="geometry" />
        </mxCell>
        <mxCell id="Ec5q4af4AY61JB5OQxS7-62" style="edgeStyle=orthogonalEdgeStyle;rounded=0;orthogonalLoop=1;jettySize=auto;html=1;exitX=0.5;exitY=1;exitDx=0;exitDy=0;entryX=0;entryY=0.5;entryDx=0;entryDy=0;fontFamily=Helvetica;" edge="1" parent="WIyWlLk6GJQsqaUBKTNV-1" source="Ec5q4af4AY61JB5OQxS7-43" target="Ec5q4af4AY61JB5OQxS7-55">
          <mxGeometry relative="1" as="geometry" />
        </mxCell>
        <mxCell id="Ec5q4af4AY61JB5OQxS7-43" value="" style="rounded=0;whiteSpace=wrap;html=1;labelBackgroundColor=#FF66FF;fontFamily=Helvetica;" vertex="1" parent="WIyWlLk6GJQsqaUBKTNV-1">
          <mxGeometry x="200" y="525" width="120" height="60" as="geometry" />
        </mxCell>
        <mxCell id="Ec5q4af4AY61JB5OQxS7-45" value="Переход к следующему элементу" style="text;html=1;strokeColor=none;fillColor=none;align=center;verticalAlign=middle;whiteSpace=wrap;rounded=0;labelBackgroundColor=#FF66FF;fontFamily=Helvetica;" vertex="1" parent="WIyWlLk6GJQsqaUBKTNV-1">
          <mxGeometry x="240" y="545" width="40" height="20" as="geometry" />
        </mxCell>
        <mxCell id="Ec5q4af4AY61JB5OQxS7-60" style="edgeStyle=orthogonalEdgeStyle;rounded=0;orthogonalLoop=1;jettySize=auto;html=1;exitX=0.5;exitY=1;exitDx=0;exitDy=0;entryX=1;entryY=0.75;entryDx=0;entryDy=0;fontFamily=Helvetica;" edge="1" parent="WIyWlLk6GJQsqaUBKTNV-1" source="Ec5q4af4AY61JB5OQxS7-51" target="Ec5q4af4AY61JB5OQxS7-55">
          <mxGeometry relative="1" as="geometry" />
        </mxCell>
        <mxCell id="Ec5q4af4AY61JB5OQxS7-51" value="" style="rounded=0;whiteSpace=wrap;html=1;labelBackgroundColor=#FF66FF;fontFamily=Helvetica;" vertex="1" parent="WIyWlLk6GJQsqaUBKTNV-1">
          <mxGeometry x="490" y="525" width="120" height="60" as="geometry" />
        </mxCell>
        <mxCell id="Ec5q4af4AY61JB5OQxS7-54" value="меняем местами элементы массива j и j + 1&amp;nbsp;" style="text;html=1;strokeColor=none;fillColor=none;align=center;verticalAlign=middle;whiteSpace=wrap;rounded=0;labelBackgroundColor=#FF66FF;fontFamily=Helvetica;" vertex="1" parent="WIyWlLk6GJQsqaUBKTNV-1">
          <mxGeometry x="500" y="545" width="100" height="20" as="geometry" />
        </mxCell>
        <mxCell id="Ec5q4af4AY61JB5OQxS7-64" style="edgeStyle=orthogonalEdgeStyle;rounded=0;orthogonalLoop=1;jettySize=auto;html=1;exitX=0.5;exitY=1;exitDx=0;exitDy=0;entryX=0.5;entryY=0;entryDx=0;entryDy=0;fontFamily=Helvetica;" edge="1" parent="WIyWlLk6GJQsqaUBKTNV-1" source="Ec5q4af4AY61JB5OQxS7-55" target="Ec5q4af4AY61JB5OQxS7-63">
          <mxGeometry relative="1" as="geometry" />
        </mxCell>
        <mxCell id="Ec5q4af4AY61JB5OQxS7-55" value="" style="rounded=0;whiteSpace=wrap;html=1;labelBackgroundColor=#FF66FF;fontFamily=Helvetica;" vertex="1" parent="WIyWlLk6GJQsqaUBKTNV-1">
          <mxGeometry x="356" y="610" width="120" height="60" as="geometry" />
        </mxCell>
        <mxCell id="Ec5q4af4AY61JB5OQxS7-66" style="edgeStyle=orthogonalEdgeStyle;rounded=0;orthogonalLoop=1;jettySize=auto;html=1;exitX=0.5;exitY=0;exitDx=0;exitDy=0;fontFamily=Helvetica;" edge="1" parent="WIyWlLk6GJQsqaUBKTNV-1" source="Ec5q4af4AY61JB5OQxS7-59">
          <mxGeometry relative="1" as="geometry">
            <mxPoint x="430" y="640" as="targetPoint" />
          </mxGeometry>
        </mxCell>
        <mxCell id="Ec5q4af4AY61JB5OQxS7-59" value="Сравниваем следующие два элемента массива" style="text;html=1;strokeColor=none;fillColor=none;align=center;verticalAlign=middle;whiteSpace=wrap;rounded=0;labelBackgroundColor=#FF66FF;fontFamily=Helvetica;" vertex="1" parent="WIyWlLk6GJQsqaUBKTNV-1">
          <mxGeometry x="396" y="630" width="40" height="20" as="geometry" />
        </mxCell>
        <mxCell id="Ec5q4af4AY61JB5OQxS7-73" style="edgeStyle=orthogonalEdgeStyle;rounded=0;orthogonalLoop=1;jettySize=auto;html=1;exitX=1;exitY=0.5;exitDx=0;exitDy=0;fontFamily=Helvetica;entryX=0.871;entryY=0.645;entryDx=0;entryDy=0;entryPerimeter=0;" edge="1" parent="WIyWlLk6GJQsqaUBKTNV-1" source="Ec5q4af4AY61JB5OQxS7-63" target="Ec5q4af4AY61JB5OQxS7-31">
          <mxGeometry relative="1" as="geometry">
            <mxPoint x="460" y="480" as="targetPoint" />
            <Array as="points">
              <mxPoint x="491" y="775" />
              <mxPoint x="491" y="580" />
              <mxPoint x="480" y="580" />
              <mxPoint x="480" y="490" />
              <mxPoint x="460" y="490" />
            </Array>
          </mxGeometry>
        </mxCell>
        <mxCell id="Ec5q4af4AY61JB5OQxS7-63" value="" style="rhombus;whiteSpace=wrap;html=1;labelBackgroundColor=#FF66FF;fontFamily=Helvetica;" vertex="1" parent="WIyWlLk6GJQsqaUBKTNV-1">
          <mxGeometry x="361" y="720" width="110" height="110" as="geometry" />
        </mxCell>
        <mxCell id="Ec5q4af4AY61JB5OQxS7-77" style="edgeStyle=orthogonalEdgeStyle;rounded=0;orthogonalLoop=1;jettySize=auto;html=1;entryX=0.5;entryY=1;entryDx=0;entryDy=0;fontFamily=Helvetica;" edge="1" parent="WIyWlLk6GJQsqaUBKTNV-1" source="Ec5q4af4AY61JB5OQxS7-67" target="Ec5q4af4AY61JB5OQxS7-75">
          <mxGeometry relative="1" as="geometry">
            <Array as="points">
              <mxPoint x="331" y="775" />
              <mxPoint x="331" y="800" />
              <mxPoint x="213" y="800" />
            </Array>
          </mxGeometry>
        </mxCell>
        <mxCell id="Ec5q4af4AY61JB5OQxS7-67" value="Дошли до последнего элемента?" style="text;html=1;strokeColor=none;fillColor=none;align=center;verticalAlign=middle;whiteSpace=wrap;rounded=0;labelBackgroundColor=#FF66FF;fontFamily=Helvetica;" vertex="1" parent="WIyWlLk6GJQsqaUBKTNV-1">
          <mxGeometry x="396" y="765" width="40" height="20" as="geometry" />
        </mxCell>
        <mxCell id="Ec5q4af4AY61JB5OQxS7-69" value="да" style="text;html=1;strokeColor=none;fillColor=none;align=center;verticalAlign=middle;whiteSpace=wrap;rounded=0;labelBackgroundColor=#FF66FF;fontFamily=Helvetica;" vertex="1" parent="WIyWlLk6GJQsqaUBKTNV-1">
          <mxGeometry x="330" y="750" width="40" height="20" as="geometry" />
        </mxCell>
        <mxCell id="Ec5q4af4AY61JB5OQxS7-72" value="нет" style="text;html=1;strokeColor=none;fillColor=none;align=center;verticalAlign=middle;whiteSpace=wrap;rounded=0;labelBackgroundColor=#FF66FF;fontFamily=Helvetica;" vertex="1" parent="WIyWlLk6GJQsqaUBKTNV-1">
          <mxGeometry x="460" y="750" width="40" height="20" as="geometry" />
        </mxCell>
        <mxCell id="Ec5q4af4AY61JB5OQxS7-78" style="edgeStyle=orthogonalEdgeStyle;rounded=0;orthogonalLoop=1;jettySize=auto;html=1;exitX=0;exitY=0.5;exitDx=0;exitDy=0;entryX=0;entryY=0.5;entryDx=0;entryDy=0;fontFamily=Helvetica;" edge="1" parent="WIyWlLk6GJQsqaUBKTNV-1" source="Ec5q4af4AY61JB5OQxS7-75" target="Ec5q4af4AY61JB5OQxS7-19">
          <mxGeometry relative="1" as="geometry" />
        </mxCell>
        <mxCell id="Ec5q4af4AY61JB5OQxS7-79" style="edgeStyle=orthogonalEdgeStyle;rounded=0;orthogonalLoop=1;jettySize=auto;html=1;exitX=1;exitY=0.5;exitDx=0;exitDy=0;fontFamily=Helvetica;" edge="1" parent="WIyWlLk6GJQsqaUBKTNV-1" source="Ec5q4af4AY61JB5OQxS7-75">
          <mxGeometry relative="1" as="geometry">
            <mxPoint x="310" y="889" as="targetPoint" />
          </mxGeometry>
        </mxCell>
        <mxCell id="Ec5q4af4AY61JB5OQxS7-75" value="" style="rhombus;whiteSpace=wrap;html=1;labelBackgroundColor=#FF66FF;fontFamily=Helvetica;" vertex="1" parent="WIyWlLk6GJQsqaUBKTNV-1">
          <mxGeometry x="160" y="660" width="105" height="105" as="geometry" />
        </mxCell>
        <mxCell id="Ec5q4af4AY61JB5OQxS7-76" value="Массив отсортирован полностью?" style="text;html=1;strokeColor=none;fillColor=none;align=center;verticalAlign=middle;whiteSpace=wrap;rounded=0;labelBackgroundColor=#FF66FF;fontFamily=Helvetica;" vertex="1" parent="WIyWlLk6GJQsqaUBKTNV-1">
          <mxGeometry x="192.5" y="702.5" width="40" height="20" as="geometry" />
        </mxCell>
        <mxCell id="Ec5q4af4AY61JB5OQxS7-80" value="" style="ellipse;whiteSpace=wrap;html=1;aspect=fixed;labelBackgroundColor=#FF66FF;fontFamily=Helvetica;" vertex="1" parent="WIyWlLk6GJQsqaUBKTNV-1">
          <mxGeometry x="272" y="890" width="80" height="80" as="geometry" />
        </mxCell>
        <mxCell id="Ec5q4af4AY61JB5OQxS7-81" value="END." style="text;html=1;strokeColor=none;fillColor=none;align=center;verticalAlign=middle;whiteSpace=wrap;rounded=0;labelBackgroundColor=#FF66FF;fontFamily=Helvetica;" vertex="1" parent="WIyWlLk6GJQsqaUBKTNV-1">
          <mxGeometry x="282" y="915" width="60" height="30" as="geometry" />
        </mxCell>
        <mxCell id="Ec5q4af4AY61JB5OQxS7-82" value="да" style="text;html=1;strokeColor=none;fillColor=none;align=center;verticalAlign=middle;whiteSpace=wrap;rounded=0;labelBackgroundColor=#FF66FF;fontFamily=Helvetica;" vertex="1" parent="WIyWlLk6GJQsqaUBKTNV-1">
          <mxGeometry x="272" y="690" width="40" height="20" as="geometry" />
        </mxCell>
        <mxCell id="Ec5q4af4AY61JB5OQxS7-83" value="нет" style="text;html=1;strokeColor=none;fillColor=none;align=center;verticalAlign=middle;whiteSpace=wrap;rounded=0;labelBackgroundColor=#FF66FF;fontFamily=Helvetica;" vertex="1" parent="WIyWlLk6GJQsqaUBKTNV-1">
          <mxGeometry x="130" y="690" width="40" height="20" as="geometry" />
        </mxCell>
      </root>
    </mxGraphModel>
  </diagram>
</mxfile>
